<svg viewBox="0 0 45 44" fill="none" xmlns="http://www.w3.org/2000/svg">
<path d="M12.8554 32.0467C12.1622 32.6301 11.13 32.5378 10.5501 31.8406C9.97005 31.1432 10.0618 30.1049 10.755 29.5215L29.3733 13.8909C31.2736 12.2956 33.649 11.6271 35.9449 11.8353C38.2178 12.0415 40.4116 13.1008 41.9912 14.9641C42.0387 15.0147 42.0825 15.0676 42.1224 15.1224C43.6586 17.0197 44.3009 19.3731 44.097 21.6487C43.8922 23.9341 42.8402 26.1395 40.9896 27.7286C40.9416 27.7743 40.8915 27.8165 40.8397 27.8553L22.2945 43.4242C21.6013 44.0075 20.569 43.9153 19.9891 43.218C19.4092 42.5207 19.5008 41.4823 20.194 40.8989L38.8122 25.2687C40.0248 24.2506 40.7124 22.8317 40.8439 21.3653C40.9737 19.917 40.5672 18.4207 39.5945 17.2142C39.5562 17.1725 39.5199 17.1289 39.486 17.0834C38.4789 15.9063 37.0936 15.2375 35.6631 15.1078C34.1982 14.9749 32.6839 15.4004 31.4738 16.4162L12.8554 32.0467Z" fill="#FAE750"/>
<path d="M3.4163 20.6695C2.72314 21.2529 1.69085 21.1607 1.11091 20.4634C0.530977 19.7661 0.622663 18.7277 1.31582 18.1443L19.9345 2.51375C21.8346 0.918455 24.21 0.24999 26.5058 0.458122C28.8087 0.666923 31.0304 1.75143 32.6145 3.66094C33.1944 4.3582 33.1027 5.39663 32.4096 5.98C31.7163 6.56338 30.6841 6.47115 30.1041 5.77388C29.0926 4.55465 27.6818 3.86274 26.2241 3.73053C24.7593 3.59773 23.2449 4.02315 22.035 5.03902L3.4163 20.6695Z" fill="#FAE750"/>
<path d="M24.5449 8.07122C25.2381 7.48776 26.2704 7.58006 26.8503 8.27733C27.4303 8.97468 27.3386 10.013 26.6454 10.5964L8.02684 26.227C6.8148 27.2445 6.12705 28.6637 5.99563 30.13C5.86346 31.6036 6.28652 33.1269 7.29624 34.344L7.30157 34.3505C8.3127 35.5659 9.72114 36.2555 11.1763 36.3875C12.6412 36.5203 14.1555 36.0949 15.3654 35.079L33.9841 19.4486C34.6772 18.8652 35.7095 18.9575 36.2894 19.6547C36.8694 20.3521 36.7777 21.3905 36.0845 21.9739L17.4659 37.6043C15.5657 39.1996 13.1904 39.8681 10.8945 39.6599C8.62416 39.4541 6.4326 38.3969 4.85322 36.5372C4.80364 36.4848 4.75754 36.4291 4.71514 36.3705C3.18024 34.4736 2.53858 32.1213 2.74253 29.8466C2.9501 27.53 4.02827 25.2952 5.92636 23.7017L24.5449 8.07122Z" fill="#FAE750"/>
</svg>
